<svg width="21" height="21" viewBox="0 0 21 21" fill="none" xmlns="http://www.w3.org/2000/svg">
<path d="M19.5196 0.775803C19.4765 0.677763 19.398 0.599331 19.3039 0.560116C19.2529 0.536586 14.2333 -1.57322 10.1039 2.55228C9.31565 3.34052 8.55486 4.26993 7.85682 5.25033L6.90388 5.03072C5.46466 4.69738 3.9823 5.12091 2.93524 6.16405L0.33523 8.76799C-0.354968 9.45818 0.0881705 10.6307 1.04896 10.7052L4.71171 10.9994C4.55093 11.4268 4.41367 11.8464 4.33524 12.1249C4.26465 12.3719 4.27642 12.6268 4.35093 12.8621C3.68818 13.0425 3.08426 13.3719 2.74308 13.7131C1.99014 14.4621 1.31955 17.7445 1.19406 18.3955C1.13915 18.7092 1.41759 18.9484 1.68425 18.8857C2.33524 18.7563 5.6176 18.0857 6.36662 17.3366C6.72349 16.9798 7.04506 16.368 7.22153 15.7288C7.47251 15.8072 7.72741 15.8072 7.95878 15.7406H7.96271C8.24114 15.6621 8.64898 15.5327 9.08428 15.3641L9.3784 19.0268C9.45291 19.9876 10.6294 20.4268 11.3157 19.7406L13.9196 17.1366C14.9627 16.0935 15.3902 14.6072 15.0529 13.168L14.8333 12.2151C15.8137 11.517 16.7431 10.7562 17.5314 9.96799C21.6569 5.84641 19.5431 0.826783 19.5196 0.775803ZM0.931311 9.36014L3.53132 6.75621C4.37446 5.91307 5.56662 5.57582 6.71564 5.84641L7.34702 5.99151C6.40976 7.39935 5.6176 8.87387 5.04505 10.1837L1.11562 9.86995C0.860722 9.84642 0.750918 9.53662 0.931311 9.36014ZM5.77446 16.7484C5.40976 17.1131 3.60191 17.619 2.14308 17.9406C2.46073 16.4778 2.96661 14.6739 3.33524 14.3092C3.65289 13.9876 4.2725 13.7092 4.87642 13.5994L6.48427 15.2072C6.48035 15.2229 6.48035 15.2386 6.47643 15.2582C6.35878 15.8347 6.0725 16.4504 5.77446 16.7484ZM7.28035 14.8151L5.26466 12.7994C5.14701 12.6817 5.09995 12.5053 5.14309 12.3484C5.17838 12.2268 5.24505 11.9994 5.33132 11.7445L8.33526 14.7484C8.15486 14.8111 7.91565 14.8857 7.73133 14.9366C7.57447 14.9837 7.40192 14.9366 7.28035 14.8151ZM14.2333 13.3641C14.5 14.5209 14.1627 15.7092 13.3235 16.5484L10.7196 19.1523C10.5392 19.3327 10.2333 19.219 10.2098 18.968L9.89605 15.0386C11.2059 14.47 12.6804 13.6739 14.0882 12.7366L14.2333 13.3641ZM9.19408 14.4229L5.65289 10.8817C6.6529 8.43857 8.56271 5.27386 10.6921 3.14444C13.1235 0.713057 16.3196 0.34835 18.8098 1.266C19.1039 2.08953 20.2726 6.04641 16.9314 9.3876C14.8019 11.517 11.6372 13.4268 9.19408 14.4229Z" fill="#D9D0C7"/>
<path d="M12.2611 3.7406C11.1356 4.8661 11.1356 6.68963 12.2611 7.81905C13.3866 8.94454 15.2101 8.94454 16.3396 7.81905C17.4651 6.69356 17.4651 4.8661 16.3396 3.7406C15.2101 2.61511 13.3866 2.61511 12.2611 3.7406ZM15.7474 7.22689C14.9474 8.02689 13.6533 8.02689 12.8533 7.22689C12.0533 6.42689 12.0533 5.13277 12.8533 4.33276C13.6533 3.53276 14.9474 3.53276 15.7474 4.33276C16.5435 5.13277 16.5435 6.43081 15.7474 7.22689Z" fill="#D9D0C7"/>
</svg>
