<svg width="144" height="43" viewBox="0 0 144 43" fill="none" xmlns="http://www.w3.org/2000/svg">
<path d="M42.1384 32.334H46.3163L46.1059 34.9189H41.2668C38.682 34.9189 37.2393 33.4762 37.2393 31.0416V28.8475H33.9932V26.1424H37.2393V22.5657L40.3651 20.7924V26.1424H44.8135V28.8775H40.3651V30.6509C40.3651 31.7329 40.9662 32.334 42.1384 32.334Z" fill="#000E0B"/>
<path d="M37.2393 15.9232H33.9932V13.1881H37.2393V11.024C37.2393 8.58943 38.682 7.14673 41.2668 7.14673H46.1059L46.3163 9.73158H42.1384C40.9662 9.73158 40.3651 10.3327 40.3651 11.4147V13.158H44.8135V15.8931H40.3651V18.2676L37.2393 20.0409V15.9232Z" fill="#000E0B"/>
<path d="M52.0877 7.47742C48.3907 7.47742 45.8359 10.0022 45.8359 13.5187C45.8359 17.0353 48.3607 19.5601 52.0877 19.5601C55.8147 19.5601 58.3694 17.0353 58.3694 13.5187C58.3694 10.0322 55.8147 7.47742 52.0877 7.47742ZM52.0877 16.7648C50.2843 16.7648 49.052 15.3822 49.052 13.5187C49.052 11.6553 50.2843 10.2727 52.0877 10.2727C53.891 10.2727 55.1534 11.6553 55.1534 13.5187C55.1534 15.3822 53.891 16.7648 52.0877 16.7648Z" fill="#000E0B"/>
<path d="M63.2079 10.6033H68.7984L68.5579 7.86816H60.082V19.2295H63.2079V10.6033Z" fill="#000E0B"/>
<path d="M52.0877 22.8362C48.3907 22.8362 45.8359 25.3609 45.8359 28.8775C45.8359 32.3941 48.3607 34.9188 52.0877 34.9188C55.8147 34.9188 58.3694 32.3941 58.3694 28.8775C58.3694 25.391 55.8147 22.8362 52.0877 22.8362ZM52.0877 32.1236C50.2843 32.1236 49.052 30.741 49.052 28.8775C49.052 27.014 50.2843 25.6314 52.0877 25.6314C53.891 25.6314 55.1534 27.014 55.1534 28.8775C55.1534 30.7711 53.891 32.1236 52.0877 32.1236Z" fill="#000E0B"/>
<path d="M73.9979 22.8362C72.1945 22.8362 70.7218 23.8882 70.331 25.6615C69.8802 23.9182 68.6178 22.8362 66.6942 22.8362C65.0712 22.8362 63.6886 23.7379 63.2077 25.2106V23.1969H60.0518V34.5582H63.1776V28.4567C63.2077 26.7736 64.0793 25.6615 65.492 25.6615C66.7543 25.6615 67.3855 26.473 67.3855 28.1862V34.5882H70.5414V28.577C70.5414 26.7736 71.4131 25.6915 72.8558 25.6915C74.0881 25.6915 74.7193 26.5031 74.7193 28.2163V34.6183H77.8752V27.2545C77.8451 24.6095 76.4625 22.8362 73.9979 22.8362Z" fill="#000E0B"/>
<path d="M85.6297 22.8362C81.9327 22.8362 79.3779 25.3609 79.3779 28.8775C79.3779 32.3941 81.9027 34.9188 85.6297 34.9188C89.3566 34.9188 91.9114 32.3941 91.9114 28.8775C91.9114 25.3609 89.3867 22.8362 85.6297 22.8362ZM85.6297 32.1236C83.8263 32.1236 82.594 30.741 82.594 28.8775C82.594 27.014 83.8263 25.6314 85.6297 25.6314C87.433 25.6314 88.6954 27.014 88.6954 28.8775C88.6954 30.741 87.4631 32.1236 85.6297 32.1236Z" fill="#000E0B"/>
<path d="M93.625 23.2269V34.5882H96.7809V25.9621H102.371L102.131 23.2269H93.625Z" fill="#000E0B"/>
<path d="M103.424 23.2269V34.5882H106.58V25.9621H112.14L111.93 23.2269H103.424Z" fill="#000E0B"/>
<path d="M118.753 22.8362C115.056 22.8362 112.501 25.3609 112.501 28.8775C112.501 32.3941 115.026 34.9188 118.753 34.9188C122.48 34.9188 125.034 32.3941 125.034 28.8775C125.034 25.3609 122.51 22.8362 118.753 22.8362ZM118.753 32.1236C116.949 32.1236 115.717 30.741 115.717 28.8775C115.717 27.014 116.949 25.6314 118.753 25.6314C120.556 25.6314 121.818 27.014 121.818 28.8775C121.818 30.7711 120.586 32.1236 118.753 32.1236Z" fill="#000E0B"/>
<path d="M140.453 23.1968L137.838 29.5387L134.952 23.1667H133.87L131.015 29.5387L128.37 23.1968H124.854L130.053 34.5882H131.586L134.441 28.2763L137.327 34.5882H138.83L143.999 23.1968H140.453Z" fill="#000E0B"/>
<path d="M26.3294 8.55936C26.2993 8.43913 26.2993 8.34896 26.2392 8.22874C26.2092 8.16862 26.119 8.10851 26.0889 8.0484C26.0589 7.98829 25.9988 7.95823 25.9687 7.89812C25.9387 7.86806 25.9387 7.838 25.9086 7.838L23.985 6.60569C23.6544 6.3953 23.2035 6.36524 22.8729 6.57564L15.2386 10.9939V2.30763C15.2386 2.24752 15.2085 2.1874 15.1785 2.12729C15.1484 2.00707 15.1484 1.9169 15.0883 1.79667C15.0582 1.73656 14.9681 1.67645 14.938 1.61633C14.8779 1.55622 14.8178 1.46605 14.7577 1.40594L12.8341 0.173627C12.5035 -0.0367681 12.0526 -0.0668245 11.722 0.14357L0.541015 6.60569C0.210395 6.78603 0 7.14671 0 7.53744V33.2958C0 33.6564 0.180338 33.9871 0.480902 34.1975L2.40451 35.4298H2.43457C2.43457 35.4298 2.43457 35.4598 2.46462 35.4598C2.49468 35.4598 2.52474 35.4598 2.52474 35.4899C2.64496 35.55 2.79524 35.6101 2.94553 35.6101H3.03569C3.21603 35.6101 3.33626 35.55 3.48654 35.4598L11.1209 31.0415V39.7278C11.1209 40.0885 11.3012 40.4191 11.6018 40.6295L13.5254 41.8618H13.5554C13.5554 41.8618 13.5554 41.8919 13.5855 41.8919C13.7658 41.9821 13.9462 42.0422 14.1265 42.0422C14.3068 42.0422 14.4872 42.0121 14.6375 41.9219L25.8485 35.4598C26.1791 35.2795 26.3895 34.9188 26.3895 34.5281V8.76975C26.3895 8.70964 26.3594 8.64953 26.3294 8.55936ZM21.5204 12.1962L24.0752 10.7234C23.5642 13.3984 21.7909 16.2237 19.5968 17.4861C18.4546 18.1473 17.3726 18.2976 16.5911 17.8768C15.9299 17.5162 15.5091 16.7948 15.3288 15.8029L21.5204 12.1962ZM4.05761 9.40094L13.0745 4.20118V14.5706L4.05761 19.7704V9.40094ZM4.05761 22.2951L13.0745 17.0954V23.828C12.9543 23.7378 12.8641 23.6477 12.7439 23.5875C11.2711 22.8061 9.46776 22.9564 7.63432 24.0083C6.25173 24.8199 5.01942 26.0522 4.05761 27.4949V22.2951ZM8.68629 25.8418C9.82844 25.1805 10.9105 25.0303 11.6919 25.451C12.3532 25.8117 12.774 26.5331 12.9543 27.5249L4.20789 32.6045C4.74891 29.9294 6.52223 27.1041 8.68629 25.8418ZM24.2555 33.9269L15.2386 39.1267V28.7572L24.2555 23.5575V33.9269ZM24.2555 21.0027L15.2386 26.2025V19.4999C15.3588 19.59 15.449 19.6802 15.5692 19.7403C16.2004 20.071 16.8917 20.2513 17.613 20.2513C18.6049 20.2513 19.6268 19.9507 20.6788 19.3496C22.0614 18.5381 23.2937 17.3058 24.2555 15.833V21.0027Z" fill="#048ABF"/>
</svg>
